# xmcd
#
# Track frame offsets:
#	150
#	19005
#	36275
#	57522
#	73467
#	91987
#	108650
#	126777
#	141847
#	159765
#	177800
#	195240
#	209762
#	225197
#	241015
#	260537
#
# Disc length: 3757 seconds
#
# Revision: 0
# Processed by: cddbd v1.5.2PL0 Copyright (c) Steve Scherf et al.
# Submitted via: EasyCDDAExtractor 12.0.0.1
#
DISCID=da0eab10
DTITLE=吴克群 - MAGIK
DYEAR=2008
DGENRE=R&B
TTITLE0=爱太痛
TTITLE1=麦搁憨
TTITLE2=傻瓜
TTITLE3=NANANA
TTITLE4=男佣
TTITLE5=将军令
TTITLE6=大舌头
TTITLE7=喂
TTITLE8=情人节
TTITLE9=音乐让我说
TTITLE10=冠军
TTITLE11=老子说
TTITLE12=周星星
TTITLE13=哈
TTITLE14=先生你哪位
TTITLE15=男佣 将军令 大舌头 喂 Remix
EXTD=
EXTT0=
EXTT1=
EXTT2=
EXTT3=
EXTT4=
EXTT5=
EXTT6=
EXTT7=
EXTT8=
EXTT9=
EXTT10=
EXTT11=
EXTT12=
EXTT13=
EXTT14=
EXTT15=
PLAYORDER=
